# xmcd
#
# Track frame offsets:
#	150
#	32332
#	58559
#	75737
#	103806
#	122660
#	154944
#	186534
#	204610
#
# Disc length: 3135 seconds
#
# Revision: 0
# Processed by: cddbd v1.5.2PL0 Copyright (c) Steve Scherf et al.
# Submitted via: EZCDAudioConverter 1.3.4.1
#
DISCID=770c3d09
DTITLE=Various Artist - Nigeria Disco Funk Special
DYEAR=1900
DGENRE=
TTITLE0=Sahara All Stars - Take Your Soul
TTITLE1=T-Fire - Will Of The People
TTITLE2=Asiko Rock Group - Lagos City
TTITLE3=Johnny Haastrup - Greetings
TTITLE4=Bongos Ikwue and The Groovies - You've Gotta Help Yourself
TTITLE5=Jay-U Experience - Some More
TTITLE6=Voices Of Darkness - Mota Ginya
TTITLE7=Dr. Adolf Ahanotu - Ijere
TTITLE8=S-Job Movement - Love Affair
EXTD=
EXTT0=
EXTT1=
EXTT2=
EXTT3=
EXTT4=
EXTT5=
EXTT6=
EXTT7=
EXTT8=
PLAYORDER=
